PathFileType	4	(X/Y/Z)	47_1_23_p0_0-353.trc
DataRate	CameraRate	NumFrames	NumMarkers	Units	OrigDataRate	OrigDataStartFrame	OrigNumFrames
60.0	60.0	7	27	m	60.0	221	354
Frame#	Time	RHip			RKnee			RAnkle			RBigToe			RSmallToe			RHeel			LHip			LKnee			LAnkle			LBigToe			LSmallToe			LHeel			Neck			Head			Nose			RShoulder			RElbow			RWrist			RThumb			RIndex			RPinky			LShoulder			LElbow			LWrist			LThumb			LIndex			LPinky			
		X1	Y1	Z1	X2	Y2	Z2	X3	Y3	Z3	X4	Y4	Z4	X5	Y5	Z5	X6	Y6	Z6	X7	Y7	Z7	X8	Y8	Z8	X9	Y9	Z9	X10	Y10	Z10	X11	Y11	Z11	X12	Y12	Z12	X13	Y13	Z13	X14	Y14	Z14	X15	Y15	Z15	X16	Y16	Z16	X17	Y17	Z17	X18	Y18	Z18	X19	Y19	Z19	X20	Y20	Z20	X21	Y21	Z21	X22	Y22	Z22	X23	Y23	Z23	X24	Y24	Z24	X25	Y25	Z25	X26	Y26	Z26	X27	Y27	Z27	
221	3.683333333333333	0.3840569739242193	0.33703795961594135	-0.16665458813649747	0.35440968401717643	0.6441276517414251	0.22942308204799958	0.32403443416642863	0.8534156108525888	0.5614529252199947	0.34322654835047184	0.7006219973052935	0.6464815682015805	0.40160605735565547	0.7336664987874965	0.636603477567602	0.2675109857084218	0.974428307822965	0.6059961734445631	0.22292272248362657	0.297861047401645	-0.15021969053122386	0.14965809114677736	0.587353029887159	0.24718316040427238	0.1348662791484903	0.8225312175828046	0.6038042090039503	0.2113959497791482	0.6838716761270552	0.6549059356890655	0.14412777615865865	0.705908861835311	0.6663634567070083	0.1297726352817862	0.8844660447398471	0.6267857941863254	0.29889625013726867	0.10246595384740004	-0.6406375450928256	0.33280331336757785	-0.06549221695256442	-0.8356043574176005	0.3695805092624179	-0.03538449082263275	-0.6894223849707483	0.4171210634860429	0.1572952486972345	-0.5961437852641296	0.3667050694898324	0.21861358505623005	-0.3832945367746369	0.6758325709957335	-0.26631674737468	-0.2574800786974633	0.8195461481320758	-0.4947849941011001	-0.2122479687407871	0.8299868208292651	-0.5240113784357111	-0.20079228749254843	0.7734747382040711	-0.4383700850031165	-0.202525307934934	0.1485234261460742	0.11592724062386241	-0.5647232051995155	0.2408733332797146	0.04653181889703814	-0.34121670925792424	0.47273195675731045	0.014511687912098057	-0.33041468774411475	0.5718515427284023	0.07078338594264443	-0.37168208424699983	0.5836137861290818	0.07372366492401579	-0.355345588312198	0.5697598889923736	0.07196340734452218	-0.3460322595501287
222	3.7	0.3959590263432574	0.31586749542993636	-0.15886061063364892	0.3538995774685114	0.6432395697762946	0.22580159050243276	0.32373550481141566	0.8541541723663648	0.5613859406977658	0.35116707375081657	0.6981163242024441	0.6448753884239603	0.4016629100871737	0.7337837856298859	0.6364252271565587	0.2665006815168536	0.9926523807812893	0.6057925827713896	0.2229870655261069	0.29768184258336555	-0.1499141017637427	0.14958008079595958	0.5875210628876111	0.24727342252772044	0.1348644693801352	0.822796933095606	0.6039928548176756	0.21253304975234122	0.6701121291231864	0.6545068478671309	0.14426911362568443	0.7054430214874345	0.6663301951304934	0.12898567392618115	0.9023331217146525	0.6304679944355654	0.2989956223158064	0.10244817132272023	-0.6406904146554366	0.3359914143350056	-0.06323922846625568	-0.8368262371753307	0.3800561178292068	-0.03994908534337679	-0.6837828819817604	0.4171496188457983	0.15716692782856462	-0.5962161927937617	0.3690544492398786	0.2198053698359781	-0.3816104863373224	0.2474663818217558	0.8675923077685622	-0.6097241249290187	0.19405908818322842	1.3312012734570662	-0.7860126897003145	0.15106199687757177	1.4717188638225631	-0.7990615873517882	0.17647274549331665	1.1093255376649958	-0.6579827660269459	0.1484089754209039	0.11840528892242864	-0.5619854091495752	0.22308959121397842	0.0404365604057945	-0.35697004221775613	0.43664687871625946	0.012113215288040548	-0.3148971761689098	0.5771535145503096	0.08950390080031184	-0.37299030783807857	0.5789826704848455	0.09589526498991574	-0.36233138048026764	0.5670362750802288	0.09831578044980599	-0.3514410047194321
223	3.716666666666667	0.4042154603473106	0.30237068397279926	-0.15978589630407022	0.35072858968534293	0.6390692260463311	0.22658212277504702	0.3156196319314948	0.8681183727535091	0.5586458020727559	0.3425323950321932	0.7141543713628195	0.646760577717932	0.4015605479490576	0.7340804880256908	0.6364166557076891	0.2680091226522695	0.9717611215109824	0.5973012144174208	0.22319584797117242	0.2987399580409549	-0.14663756172656717	0.14969932530750488	0.5873812424339987	0.24722331111497875	0.13480611692760505	0.8227015027157769	0.6038512971779957	0.21247065882273028	0.6701129443665241	0.6544814760797466	0.14417026871251395	0.7056461136752369	0.6663428579344954	0.12870374288404504	0.8987720006660765	0.6275957357868944	0.3022321916478418	0.1026126532976869	-0.6445881031835415	0.33609326113256566	-0.06335494229291275	-0.8368066302388062	0.38023683158976346	-0.039657166265368096	-0.6837033793818081	0.4169747447331728	0.15298498294864468	-0.6022696510555523	0.3751774419302117	0.22868178258918204	-0.3857087886509345	0.2809329641402505	0.7815394314726171	-0.5698384653002685	0.3554122616499433	0.8509142617999627	-0.6345852361715925	0.32435300236205167	0.9530345434201463	-0.6426472944237616	0.20461604671370723	1.0722728458246111	-0.6424246118828777	0.1486613901546136	0.1169206351347282	-0.5654100618678857	0.2226674744175408	0.04216535689972609	-0.3561306010511578	0.466629547225785	0.053118082127676214	-0.3477372847030438	0.5774721661429545	0.09036723699105098	-0.3723967557435677	0.5793554267059403	0.09613933680895649	-0.3633379877125621	0.5586575043654904	0.10813862063667895	-0.354956902178304
224	3.7333333333333334	0.3963561047822846	0.31430702500760305	-0.1622403943255544	0.3508096034000104	0.6251314592446799	0.22816193630928636	0.324832244401539	0.851601728941718	0.5573191416134878	0.3425532440568016	0.7140939159395087	0.6467953816596985	0.4015971102796298	0.7340280851366457	0.6364499144616316	0.2671987079007582	0.9889148787105858	0.5972912535777598	0.2236753950817996	0.2972853561249602	-0.15013719970372646	0.14965939265459569	0.5874771359257094	0.24724973474822134	0.13489884399422583	0.8224722313076727	0.6037108631832794	0.2125039052068805	0.6700812635726765	0.6544993718168357	0.14415912420276902	0.7056471687758781	0.6663105917521958	0.12887164033168577	0.8984704526355514	0.6272943773170065	0.30222004977224737	0.10270472717747564	-0.6447291663082149	0.3363368489071171	-0.06194093730094698	-0.8337863035570667	0.3803553496887804	-0.039527629739170136	-0.683606234574524	0.4168362205423357	0.15285523830793712	-0.602538464322781	0.38342920530109964	0.2148486744877898	-0.38586406666016265	0.2916127133616505	0.7539260307131888	-0.558679609481199	0.5167654351166582	0.37062725014285913	-0.48315778264287035	0.49764400784653157	0.4343502230177294	-0.486233001495735	0.21658990943285983	1.0406001890780538	-0.6331471033893259	0.14885855787862226	0.1113304374430331	-0.5751090121981826	0.2222793582591285	0.040590930917916296	-0.359464931441508	0.4297330030351715	-0.008080994542733304	-0.30361254051745307	0.5765533559210395	0.08653832111009684	-0.3755541674629744	0.5789193434948701	0.09488302563658912	-0.36366285339358334	0.5583996050348022	0.107202833661194	-0.355299918233452
225	3.75	0.3958116363284452	0.31608450327081816	-0.1588661589653118	0.35393576828533385	0.6291362757757214	0.2272952930529219	0.3156114644231401	0.8677481952781015	0.5586005916144818	0.35051892856844336	0.7115345664852694	0.6452699760507613	0.40154387565316685	0.7344622808107006	0.6363743579761273	0.26795087654195576	0.9707346754866587	0.5973411044914488	0.22316018168973797	0.2988612278318566	-0.14660645887508922	0.14986351346534083	0.5915548373679568	0.2511235389260914	0.13482721168079648	0.8224861762053391	0.6037364652047765	0.2102139141673552	0.686050374055298	0.6590664440679354	0.14410631948733116	0.7058979453904938	0.6663607850868442	0.12883714854245384	0.8984499456825912	0.6271477956332525	0.3020470615286232	0.10525188165124275	-0.641468565916701	0.3437455737063599	-0.07084552389021374	-0.8288989642856794	0.38047285607487297	-0.039593998888903234	-0.6833422604995216	0.4166106492605822	0.1540486669964549	-0.6030640037497209	0.3950005193670733	0.1892521347280965	-0.38334049749557786	0.6676683110375209	-0.2437339640884496	-0.26323581917414657	0.678118608583373	-0.1096597615142445	-0.3317303291141483	0.6709350133310115	-0.08433409738468733	-0.3298187085677084	0.1748326253842045	0.5269281003634547	-0.490813878395435	0.15100220876108617	0.09242112929558023	-0.5597169531933464	0.22323679011815267	0.03794743022047519	-0.3438090350248712	0.4250705009565517	-0.009503870213823411	-0.2991281320409927	0.5734637820199255	0.076238361600014	-0.36617050293300896	0.5760715242833188	0.08301533817810298	-0.35872278925764933	0.5609672202990222	0.07330148644024195	-0.34463723672126395
226	3.7666666666666666	0.3954308163353335	0.3286025929891207	-0.1618785757771639	0.3543382427201607	0.6441209017516837	0.22945197187605174	0.32355322334629333	0.8543057130719849	0.5613656086695255	0.35113600589436117	0.6982169795384506	0.6449204793206089	0.401559482277815	0.7339870644103944	0.6365956085487425	0.2655648888685773	0.9920248421900144	0.6018959167422667	0.22322476425505342	0.2988429813236977	-0.14683179522306616	0.15275844719765666	0.5911547842985289	0.24649450544795493	0.13472447779763194	0.8229335156628049	0.6038934341485587	0.21237403966062673	0.6702237169653352	0.6544894410760147	0.14409843509832032	0.7058204148444726	0.6663342343168179	0.12887686381915073	0.9024349573019554	0.6297906285517155	0.29391220009139113	0.11557915750890606	-0.6455469253905043	0.34374070542418106	-0.07073285976072104	-0.8287402615677133	0.3804732245792797	-0.039691784951045986	-0.683158391602653	0.4166989149642887	0.152968054237943	-0.6064241169213536	0.39619253898938156	0.1594744940539367	-0.37634795399938964	0.2992098930150976	0.6998715148098384	-0.5392991219940878	0.8394717820500878	-0.5899467731713479	-0.1803028755854263	0.8442260188154913	-0.6030184177871044	-0.17340441563968184	0.13307534133554916	0.013256011648855702	-0.3484806534015441	0.1511634297063665	0.09098285183601577	-0.5625954236148623	0.2165492088058849	0.049752302899058604	-0.33968771086975963	0.417575268781256	0.02648279971909356	-0.3061762162173605	0.5557904807050291	0.09417759328058772	-0.37291759902977417	0.5722244789041098	0.0735771016181493	-0.3494031740902418	0.5320761372167835	0.049163627419116444	-0.3228785609132417
227	3.783333333333333	0.39570429483177466	0.3272524095784958	-0.16541786258716223	0.35044617215151636	0.6214653057196272	0.22486036064829634	0.3234234073135236	0.8540638129742907	0.5612465242015166	0.3512178238563636	0.6979498488420736	0.6448748364731879	0.4016292724653678	0.7336066795864679	0.636594713049485	0.2654014392030147	0.9926431214015907	0.6016549834092457	0.21980083577308665	0.29304191898035237	-0.15598263956724567	0.14903829696820925	0.5863982811045105	0.2433880813938031	0.13486738386603037	0.8224865442957981	0.6037077642362025	0.2112103032264792	0.6726470887034565	0.6585760490605606	0.14415072206671445	0.7056134028604374	0.6662720497117542	0.1287635842867567	0.8986705714722105	0.626920080746449	0.2939703631968523	0.11716016456296605	-0.6423215590339244	0.34390534492539565	-0.0709456958059792	-0.8283688732860031	0.38056413005526546	-0.03840404972561151	-0.6802159753078129	0.4168771576917332	0.1559360615621779	-0.5996982956967489	0.4090670144785896	0.17314768242628595	-0.3522533999616468	0.4768646799165013	-0.15927819310025632	-0.25543482545490714	0.48975265351584407	-0.30663287899323066	-0.2855328879470721	0.4949258205221588	-0.32170513778807547	-0.2743812217644614	0.4908201381504597	-0.2870785987980326	-0.2532278314097291	0.14986614100401183	0.09814042313535368	-0.5773664042068835	0.2203665394475155	0.048980847159237374	-0.34757216929967055	0.42001861556221665	0.028678980854785412	-0.33005455523664373	0.5503152594316746	0.03435215340987838	-0.3423791254135132	0.5624640408997572	0.02843234289904273	-0.33611883377970503	0.5356361405787528	0.045393999066672075	-0.32556995313181847
